<?xml version="1.0" encoding="UTF-8"?>
<svg id="Layer_1" xmlns="http://www.w3.org/2000/svg" version="1.1" viewBox="0 0 512 512">
  <defs>
    <style>
      .st0 { fill: #e8a020; }
      .st1 { fill: #1a3a6b; }
    </style>
  </defs>
  <g>
    <rect class="st1" x="5" y="5" width="502" height="502" rx="82" ry="82"/>
    <path class="st0" d="M425,10c42.46,0,77,34.54,77,77v338c0,42.46-34.54,77-77,77H87c-42.46,0-77-34.54-77-77V87C10,44.54,44.54,10,87,10h338M425,0H87C38.95,0,0,38.95,0,87v338c0,48.05,38.95,87,87,87h338c48.05,0,87-38.95,87-87V87c0-48.05-38.95-87-87-87h0Z"/>
  </g>
  <path class="st0" d="M452.74,409.58l-77.95-77.95c-5.85-5.85-13.31-8.99-20.95-9.73,23.5-29.28,37.62-66.38,37.62-106.77,0-94.36-76.76-171.12-171.12-171.12S49.23,120.77,49.23,215.12s76.76,171.12,171.12,171.12c35.6,0,68.69-10.95,96.1-29.64.21,8.49,3.48,16.91,9.95,23.41l77.95,77.95c6.67,6.69,15.45,10.03,24.2,10.03s17.52-3.34,24.2-10.03c13.37-13.36,13.37-35.02,0-48.39ZM220.35,329.21c-62.9,0-114.08-51.15-114.08-114.08s51.18-114.08,114.08-114.08,114.08,51.18,114.08,114.08-51.18,114.08-114.08,114.08Z"/>
</svg>
